<?xml version="1.0" encoding="utf-8"?>
<svg xmlns="http://www.w3.org/2000/svg">


  <!-- Portada -->
  <symbol id="LogoApple" viewBox="0 0 384 512">
    <path d="M318.7 268.7c-.2-36.7 16.4-64.4 50-84.8-18.8-26.9-47.2-41.7-84.7-44.6-35.5-2.8-74.3 20.7-88.5 20.7-15 0-49.4-19.7-76.4-19.7C63.3 141.2 4 184.8 4 273.5q0 39.3 14.4 81.2c12.8 36.7 59 126.7 107.2 125.2 25.2-.6 43-17.9 75.8-17.9 31.8 0 48.3 17.9 76.4 17.9 48.6-.7 90.4-82.5 102.6-119.3-65.2-30.7-61.7-90-61.7-91.9zm-56.6-164.2c27.3-32.4 24.8-61.9 24-72.5-24.1 1.4-52 16.4-67.9 34.9-17.5 19.8-27.8 44.3-25.6 71.9 26.1 2 49.9-11.4 69.5-34.3z"/>
  </symbol>


  <!-- Secciones -->
  <symbol id="icoHome" viewBox="0 0 576 512">
    <path d="M543.8 287.6c17 0 32-14 32-32.1c1-9-3-17-11-24L512 185V64c0-17.7-14.3-32-32-32H448c-17.7 0-32 14.3-32 32v36.7L309.5 7c-6-5-14-7-21-7s-15 1-22 8L10 231.5c-7 7-10 15-10 24c0 18 14 32.1 32 32.1h32v69.7c-.1 .9-.1 1.8-.1 2.8V472c0 22.1 17.9 40 40 40h16c1.2 0 2.4-.1 3.6-.2c1.5 .1 3 .2 4.5 .2H160h24c22.1 0 40-17.9 40-40V448 384c0-17.7 14.3-32 32-32h64c17.7 0 32 14.3 32 32v64 24c0 22.1 17.9 40 40 40h24 32.5c1.4 0 2.8 0 4.2-.1c1.1 .1 2.2 .1 3.3 .1h16c22.1 0 40-17.9 40-40V455.8c.3-2.6 .5-5.3 .5-8.1l-.7-160.2h32z"/>
  </symbol>

  <symbol id="icoAudio" viewBox="0 0 512 512">
  <path d="M256 80C141.1 80 48 173.1 48 288V392c0 13.3-10.7 24-24 24s-24-10.7-24-24V288C0 146.6 114.6 32 256 32s256 114.6 256 256V392c0 13.3-10.7 24-24 24s-24-10.7-24-24V288c0-114.9-93.1-208-208-208zM80 352c0-35.3 28.7-64 64-64h16c17.7 0 32 14.3 32 32V448c0 17.7-14.3 32-32 32H144c-35.3 0-64-28.7-64-64V352zm288-64c35.3 0 64 28.7 64 64v64c0 35.3-28.7 64-64 64H352c-17.7 0-32-14.3-32-32V320c0-17.7 14.3-32 32-32h16z"/>
  </symbol>

  <symbol id="icoCompresor" viewBox="0 0 384 512">
      <path d="M365.3 93.38l-74.63-74.64C278.6 6.742 262.3 0 245.4 0L64-.0001c-35.35 0-64 28.65-64 64l.0065 384c0 35.34 28.65 64 64 64H320c35.2 0 64-28.8 64-64V138.6C384 121.7 377.3 105.4 365.3 93.38zM336 448c0 8.836-7.164 16-16 16H64.02c-8.838 0-16-7.164-16-16L48 64.13c0-8.836 7.164-16 16-16h48V64h64V48.13h48.01L224 128c0 17.67 14.33 32 32 32h79.1V448zM176 96h-64v32h64V96zM176 160h-64v32h64V160zM176 224h-64l-30.56 116.5C73.51 379.5 103.7 416 144.3 416c40.26 0 70.45-36.3 62.68-75.15L176 224zM160 368H128c-8.836 0-16-7.164-16-16s7.164-16 16-16h32c8.836 0 16 7.164 16 16S168.8 368 160 368z"/>
  </symbol>

  <symbol id="icoCorreo" viewBox="0 0 512 512">
    <path d="M121 32C91.6 32 66 52 58.9 80.5L1.9 308.4C.6 313.5 0 318.7 0 323.9V416c0 35.3 28.7 64 64 64H448c35.3 0 64-28.7 64-64V323.9c0-5.2-.6-10.4-1.9-15.5l-57-227.9C446 52 420.4 32 391 32H121zm0 64H391l48 192H387.8c-12.1 0-23.2 6.8-28.6 17.7l-14.3 28.6c-5.4 10.8-16.5 17.7-28.6 17.7H195.8c-12.1 0-23.2-6.8-28.6-17.7l-14.3-28.6c-5.4-10.8-16.5-17.7-28.6-17.7H73L121 96z"/>
  </symbol>

  <symbol id="icoDescarga" viewBox="0 0 640 512">
    <path d="M144 480C64.5 480 0 415.5 0 336c0-62.8 40.2-116.2 96.2-135.9c-.1-2.7-.2-5.4-.2-8.1c0-88.4 71.6-160 160-160c59.3 0 111 32.2 138.7 80.2C409.9 102 428.3 96 448 96c53 0 96 43 96 96c0 12.2-2.3 23.8-6.4 34.6C596 238.4 640 290.1 640 352c0 70.7-57.3 128-128 128H144zm79-167l80 80c9.4 9.4 24.6 9.4 33.9 0l80-80c9.4-9.4 9.4-24.6 0-33.9s-24.6-9.4-33.9 0l-39 39V184c0-13.3-10.7-24-24-24s-24 10.7-24 24V318.1l-39-39c-9.4-9.4-24.6-9.4-33.9 0s-9.4 24.6 0 33.9z"/>
  </symbol>

  <symbol id="icoDownload" viewBox="0 0 384 512">
    <path d="M169.4 470.6c12.5 12.5 32.8 12.5 45.3 0l160-160c12.5-12.5 12.5-32.8 0-45.3s-32.8-12.5-45.3 0L224 370.8 224 64c0-17.7-14.3-32-32-32s-32 14.3-32 32l0 306.7L54.6 265.4c-12.5-12.5-32.8-12.5-45.3 0s-12.5 32.8 0 45.3l160 160z"/>
  </symbol>

  <symbol id="icoDiseno" viewBox="0 0 512 512">
    <path d="M368.4 18.3L312.7 74.1 437.9 199.3l55.7-55.7c21.9-21.9 21.9-57.3 0-79.2L447.6 18.3c-21.9-21.9-57.3-21.9-79.2 0zM288 94.6l-9.2 2.8L134.7 140.6c-19.9 6-35.7 21.2-42.3 41L3.8 445.8c-3.8 11.3-1 23.9 7.3 32.4L164.7 324.7c-3-6.3-4.7-13.3-4.7-20.7c0-26.5 21.5-48 48-48s48 21.5 48 48s-21.5 48-48 48c-7.4 0-14.4-1.7-20.7-4.7L33.7 500.9c8.6 8.3 21.1 11.2 32.4 7.3l264.3-88.6c19.7-6.6 35-22.4 41-42.3l43.2-144.1 2.8-9.2L288 94.6z"/>
  </symbol>

  <symbol id="icoImagenes" viewBox="0 0 512 512">
    <path d="M152 120c-26.51 0-48 21.49-48 48s21.49 48 48 48s48-21.49 48-48S178.5 120 152 120zM447.1 32h-384C28.65 32-.0091 60.65-.0091 96v320c0 35.35 28.65 64 63.1 64h384c35.35 0 64-28.65 64-64V96C511.1 60.65 483.3 32 447.1 32zM463.1 409.3l-136.8-185.9C323.8 218.8 318.1 216 312 216c-6.113 0-11.82 2.768-15.21 7.379l-106.6 144.1l-37.09-46.1c-3.441-4.279-8.934-6.809-14.77-6.809c-5.842 0-11.33 2.529-14.78 6.809l-75.52 93.81c0-.0293 0 .0293 0 0L47.99 96c0-8.822 7.178-16 16-16h384c8.822 0 16 7.178 16 16V409.3z"/>
  </symbol>

  <symbol id="icoOfimatica" viewBox="0 0 384 512">
    <path d="M365.3 93.38l-74.63-74.64C278.6 6.742 262.3 0 245.4 0H64C28.65 0 0 28.65 0 64l.0065 384c0 35.34 28.65 64 64 64H320c35.2 0 64-28.8 64-64V138.6C384 121.7 377.3 105.4 365.3 93.38zM336 448c0 8.836-7.164 16-16 16H64.02c-8.838 0-16-7.164-16-16L48 64.13c0-8.836 7.164-16 16-16h160L224 128c0 17.67 14.33 32 32 32h79.1V448zM214.6 248C211.3 238.4 202.2 232 192 232s-19.25 6.406-22.62 16L144.7 318.1l-25.89-77.66C114.6 227.8 101 221.2 88.41 225.2C75.83 229.4 69.05 243 73.23 255.6l48 144C124.5 409.3 133.5 415.9 143.8 416c10.17 0 19.45-6.406 22.83-16L192 328.1L217.4 400C220.8 409.6 229.8 416 240 416c10.27-.0938 19.53-6.688 22.77-16.41l48-144c4.188-12.59-2.594-26.16-15.17-30.38c-12.61-4.125-26.2 2.594-30.36 15.19l-25.89 77.66L214.6 248z"/>
  </symbol>

  <symbol id="icoNotes" viewBox="0 0 448 512">
    <path d="M64 80c-8.8 0-16 7.2-16 16V416c0 8.8 7.2 16 16 16H288V352c0-17.7 14.3-32 32-32h80V96c0-8.8-7.2-16-16-16H64zM288 480H64c-35.3 0-64-28.7-64-64V96C0 60.7 28.7 32 64 32H384c35.3 0 64 28.7 64 64V320v5.5c0 17-6.7 33.3-18.7 45.3l-90.5 90.5c-12 12-28.3 18.7-45.3 18.7H288z"/>
  </symbol>

  <symbol id="icoSystem" viewBox="0 0 512 512">
    <path d="M495.9 166.6c3.2 8.7 .5 18.4-6.4 24.6l-43.3 39.4c1.1 8.3 1.7 16.8 1.7 25.4s-.6 17.1-1.7 25.4l43.3 39.4c6.9 6.2 9.6 15.9 6.4 24.6c-4.4 11.9-9.7 23.3-15.8 34.3l-4.7 8.1c-6.6 11-14 21.4-22.1 31.2c-5.9 7.2-15.7 9.6-24.5 6.8l-55.7-17.7c-13.4 10.3-28.2 18.9-44 25.4l-12.5 57.1c-2 9.1-9 16.3-18.2 17.8c-13.8 2.3-28 3.5-42.5 3.5s-28.7-1.2-42.5-3.5c-9.2-1.5-16.2-8.7-18.2-17.8l-12.5-57.1c-15.8-6.5-30.6-15.1-44-25.4L83.1 425.9c-8.8 2.8-18.6 .3-24.5-6.8c-8.1-9.8-15.5-20.2-22.1-31.2l-4.7-8.1c-6.1-11-11.4-22.4-15.8-34.3c-3.2-8.7-.5-18.4 6.4-24.6l43.3-39.4C64.6 273.1 64 264.6 64 256s.6-17.1 1.7-25.4L22.4 191.2c-6.9-6.2-9.6-15.9-6.4-24.6c4.4-11.9 9.7-23.3 15.8-34.3l4.7-8.1c6.6-11 14-21.4 22.1-31.2c5.9-7.2 15.7-9.6 24.5-6.8l55.7 17.7c13.4-10.3 28.2-18.9 44-25.4l12.5-57.1c2-9.1 9-16.3 18.2-17.8C227.3 1.2 241.5 0 256 0s28.7 1.2 42.5 3.5c9.2 1.5 16.2 8.7 18.2 17.8l12.5 57.1c15.8 6.5 30.6 15.1 44 25.4l55.7-17.7c8.8-2.8 18.6-.3 24.5 6.8c8.1 9.8 15.5 20.2 22.1 31.2l4.7 8.1c6.1 11 11.4 22.4 15.8 34.3zM256 336a80 80 0 1 0 0-160 80 80 0 1 0 0 160z"/>
  </symbol>

  <symbol id="icoToDo" viewBox="0 0 512 512">
    <path d="M40 48C26.7 48 16 58.7 16 72v48c0 13.3 10.7 24 24 24H88c13.3 0 24-10.7 24-24V72c0-13.3-10.7-24-24-24H40zM192 64c-17.7 0-32 14.3-32 32s14.3 32 32 32H480c17.7 0 32-14.3 32-32s-14.3-32-32-32H192zm0 160c-17.7 0-32 14.3-32 32s14.3 32 32 32H480c17.7 0 32-14.3 32-32s-14.3-32-32-32H192zm0 160c-17.7 0-32 14.3-32 32s14.3 32 32 32H480c17.7 0 32-14.3 32-32s-14.3-32-32-32H192zM16 232v48c0 13.3 10.7 24 24 24H88c13.3 0 24-10.7 24-24V232c0-13.3-10.7-24-24-24H40c-13.3 0-24 10.7-24 24zM40 368c-13.3 0-24 10.7-24 24v48c0 13.3 10.7 24 24 24H88c13.3 0 24-10.7 24-24V392c0-13.3-10.7-24-24-24H40z"/>
  </symbol>

  <symbol id="icoVideoPlayer" viewBox="0 0 512 512">
    <path d="M0 96C0 60.7 28.7 32 64 32H448c35.3 0 64 28.7 64 64V416c0 35.3-28.7 64-64 64H64c-35.3 0-64-28.7-64-64V96zM48 368v32c0 8.8 7.2 16 16 16H96c8.8 0 16-7.2 16-16V368c0-8.8-7.2-16-16-16H64c-8.8 0-16 7.2-16 16zm368-16c-8.8 0-16 7.2-16 16v32c0 8.8 7.2 16 16 16h32c8.8 0 16-7.2 16-16V368c0-8.8-7.2-16-16-16H416zM48 240v32c0 8.8 7.2 16 16 16H96c8.8 0 16-7.2 16-16V240c0-8.8-7.2-16-16-16H64c-8.8 0-16 7.2-16 16zm368-16c-8.8 0-16 7.2-16 16v32c0 8.8 7.2 16 16 16h32c8.8 0 16-7.2 16-16V240c0-8.8-7.2-16-16-16H416zM48 112v32c0 8.8 7.2 16 16 16H96c8.8 0 16-7.2 16-16V112c0-8.8-7.2-16-16-16H64c-8.8 0-16 7.2-16 16zM416 96c-8.8 0-16 7.2-16 16v32c0 8.8 7.2 16 16 16h32c8.8 0 16-7.2 16-16V112c0-8.8-7.2-16-16-16H416zM160 128v64c0 17.7 14.3 32 32 32H320c17.7 0 32-14.3 32-32V128c0-17.7-14.3-32-32-32H192c-17.7 0-32 14.3-32 32zm32 160c-17.7 0-32 14.3-32 32v64c0 17.7 14.3 32 32 32H320c17.7 0 32-14.3 32-32V320c0-17.7-14.3-32-32-32H192z"/>
  </symbol>
  

  <symbol id= "icoVideoGames"  viewBox="0 0 256 256">
    <path d="M176 116h-24a12 12 0 0 1 0-24h24a12 12 0 0 1 0 24m-72-24h-4v-4a12 12 0 0 0-24 0v4h-4a12 12 0 0 0 0 24h4v4a12 12 0 0 0 24 0v-4h4a12 12 0 0 0 0-24m140.76 110.94a40 40 0 0 1-61 5.35a7 7 0 0 1-.53-.56L144.67 164h-33.34l-38.52 43.73c-.17.19-.35.38-.53.56a40 40 0 0 1-67.66-35.24a1 1 0 0 1 0-.2L21 88.79A63.88 63.88 0 0 1 83.88 36H172a64.08 64.08 0 0 1 62.93 52.48a2 2 0 0 1 0 .19l16.36 84.17a2 2 0 0 1 0 .2a39.74 39.74 0 0 1-6.53 29.9M172 140a40 40 0 0 0 0-80H83.89a39.9 39.9 0 0 0-39.27 33.06a2 2 0 0 0 0 .21l-16.34 84a16 16 0 0 0 13 18.44a16.07 16.07 0 0 0 13.86-4.21l41.76-47.43a12 12 0 0 1 9-4.07Zm55.76 37.31l-7-35.95a63.84 63.84 0 0 1-44.27 22.46l24.41 27.72a16 16 0 0 0 26.85-14.23Z"/>
  </symbol>

  <symbol id="icoVideoEdit" viewBox="0 0 122.88 100.12">
    <path d="M11.72,0h89.63a11.73,11.73,0,0,1,11.72,11.72V40a15.63,15.63,0,0,0-4.53-.1c-.37,0-.74.09-1.11.16V26.31H5.65V73.16h65.9a14.91,14.91,0,0,0-2.17,5.64H60.13V94.47h7.11l-.11.82a15.12,15.12,0,0,0,.13,4.83H11.72A11.74,11.74,0,0,1,0,88.4V11.72A11.74,11.74,0,0,1,11.72,0ZM97.2,94.26l-15,3,2.17-16L97.2,94.26ZM89.1,76.5l20.22-21a1.38,1.38,0,0,1,1.73-.27l11.47,11.1a1.22,1.22,0,0,1-.1,1.82L101.93,89.43,89.1,76.5ZM50.5,33.65,70.33,47.47a3,3,0,0,1,.81.79,2.81,2.81,0,0,1-.72,3.92L50.68,65.83a2.83,2.83,0,0,1-4.62-2.19V36s.43-1.49.51-1.62a2.83,2.83,0,0,1,3.93-.69Zm4,60.82V78.8H31.71V94.47ZM26.06,78.8H5.65v9.6a6.09,6.09,0,0,0,6.07,6.07H26.06V78.8ZM82.28,20.66v-15H60.13v15Zm5.65-15v15h19.49V11.72a6.09,6.09,0,0,0-6.08-6.07Zm-33.45,15v-15H31.71v15Zm-28.42,0v-15H11.72a6.09,6.09,0,0,0-6.07,6.07v8.94Z"/>
  </symbol>

</svg>


