<?xml version="1.0" encoding="UTF-8"?>
<svg width="512" height="512" viewBox="0 0 512 512" xmlns="http://www.w3.org/2000/svg">
  <svg></svg>

  <svg id="LogoApple" viewBox="0 0 384 512">
    <path d="m336.51 270.56c-0.22848-41.95 18.735-73.613 57.12-96.932-21.477-30.748-53.921-47.666-96.761-50.981-40.555-3.2006-84.88 23.661-101.1 23.661-17.136 0-56.435-22.518-87.279-22.518-63.746 1.0288-131.49 50.866-131.49 152.26q0 44.922 16.451 92.817c14.623 41.95 67.402 144.83 122.47 143.11 28.789-0.68584 49.123-20.461 86.594-20.461 36.328 0 55.178 20.461 87.279 20.461 55.521-0.80015 103.27-94.303 117.21-136.37-74.485-35.092-70.486-102.88-70.486-105.05zm-64.66-187.69c31.188-37.035 28.332-70.756 27.418-82.872-27.532 1.6003-59.405 18.746-77.569 39.893-19.992 22.633-31.759 50.638-29.245 82.186 29.817 2.2861 57.006-13.031 79.397-39.207z" fill="currentColor" stroke-width="1.1427"/>
  </svg>

  <svg id="icoHome" viewBox="0 0 512 512">
    <path d="m543.85 287.66c17.001 0 32.003-14.027 32.003-32.163 1.0001-9.0176-3.0002-17.033-11.001-24.047l-52.804-46.591v-121.24c0-17.735-14.301-32.062-32.003-32.062h-32.003c-17.702 0-32.003 14.328-32.003 32.062v36.772l-106.51-93.883c-6.0005-5.0098-14.001-7.0137-21.002-7.0137-7.0006 0-15.001 1.002-22.002 8.0156l-256.52 223.94c-7.0006 7.0137-10.001 15.029-10.001 24.047 0 18.035 14.001 32.163 32.003 32.163h32.003v69.836c-0.10001 0.90175-0.10001 1.8035-0.10001 2.8055v112.12c0 22.143 17.902 40.078 40.003 40.078h16.001c1.2001 0 2.4002-0.1002 3.6003-0.20039 1.5001 0.10019 3.0003 0.20039 4.5004 0.20039h56.005c22.102 0 40.003-17.935 40.003-40.078v-88.172c0-17.735 14.301-32.062 32.003-32.062h64.005c17.702 0 32.003 14.328 32.003 32.062v88.172c0 22.143 17.902 40.078 40.003 40.078h56.505c1.4001 0 2.8002 0 4.2004-0.1002 1.1001 0.1002 2.2002 0.1002 3.3003 0.1002h16.001c22.102 0 40.003-17.935 40.003-40.078v-16.232c0.30002-2.6051 0.50004-5.3104 0.50004-8.1158l-0.70006-160.51h32.003z" fill="currentColor" stroke-width="1.001"/>
  </svg>

  <svg id="icoAudio" viewBox="0 0 512 512">
    <path d="m256 80c-114.9 0-208 93.1-208 208v104c0 13.3-10.7 24-24 24s-24-10.7-24-24v-104c0-141.4 114.6-256 256-256s256 114.6 256 256v104c0 13.3-10.7 24-24 24s-24-10.7-24-24v-104c0-114.9-93.1-208-208-208zm-176 272c0-35.3 28.7-64 64-64h16c17.7 0 32 14.3 32 32v128c0 17.7-14.3 32-32 32h-16c-35.3 0-64-28.7-64-64zm288-64c35.3 0 64 28.7 64 64v64c0 35.3-28.7 64-64 64h-16c-17.7 0-32-14.3-32-32v-128c0-17.7 14.3-32 32-32z" fill="currentColor"/>
  </svg>

  <svg id="icoCompresor" viewBox="0 0 384 512">
    <path d="m365.3 93.38-74.63-74.64c-12.07-11.998-28.37-18.74-45.27-18.74l-181.4-1e-4c-35.35 0-64 28.65-64 64l0.0065 384c0 35.34 28.65 64 64 64h255.99c35.2 0 64-28.8 64-64v-309.4c0-16.9-6.7-33.2-18.7-45.22zm-29.3 354.62c0 8.836-7.164 16-16 16h-255.98c-8.838 0-16-7.164-16-16l-0.02-383.87c0-8.836 7.164-16 16-16h48v15.87h64v-15.87h48.01l-0.01 79.87c0 17.67 14.33 32 32 32h79.1v288zm-160-352h-64v32h64zm0 64h-64v32h64zm0 64h-64l-30.56 116.5c-7.93 39 22.26 75.5 62.86 75.5 40.26 0 70.45-36.3 62.68-75.15zm-16 144h-32c-8.836 0-16-7.164-16-16s7.164-16 16-16h32c8.836 0 16 7.164 16 16s-7.2 16-16 16z" fill="currentColor"/>
  </svg>

  <svg id="icoCorreo" viewBox="0 0 512 512">
    <path d="m121 32c-29.4 0-55 20-62.1 48.5l-57 227.9c-1.3 5.1-1.9 10.3-1.9 15.5v92.1c0 35.3 28.7 64 64 64h384c35.3 0 64-28.7 64-64v-92.1c0-5.2-0.6-10.4-1.9-15.5l-57-227.9c-7.1-28.5-32.7-48.5-62.1-48.5zm0 64h270l48 192h-51.2c-12.1 0-23.2 6.8-28.6 17.7l-14.3 28.6c-5.4 10.8-16.5 17.7-28.6 17.7h-120.5c-12.1 0-23.2-6.8-28.6-17.7l-14.3-28.6c-5.4-10.8-16.5-17.7-28.6-17.7h-51.3z" fill="currentColor"/>
  </svg>

  <svg id="icoDescarga" viewBox="0 0 650 650">
    <path d="m144 481c-79.5 0-144-64.788-144-144.64 0-63.08 40.2-116.72 96.2-136.51-0.1-2.7121-0.2-5.4241-0.2-8.1362 0-88.795 71.6-160.71 160-160.71 59.3 0 111 32.344 138.7 80.558 15.2-10.246 33.6-16.272 53.3-16.272 53 0 96 43.192 96 96.429 0 12.254-2.3 23.906-6.4 34.754 58.4 11.853 102.4 63.783 102.4 125.96 0 71.016-57.3 128.57-128 128.57zm79-167.75 80 80.357c9.4 9.442 24.6 9.442 33.9 0l80-80.357c9.4-9.442 9.4-24.71 0-34.051-9.4-9.3415-24.6-9.442-33.9 0l-39 39.174v-134.7c0-13.359-10.7-24.107-24-24.107s-24 10.748-24 24.107v134.7l-39-39.174c-9.4-9.442-24.6-9.442-33.9 0-9.3 9.442-9.4 24.71 0 34.051z" fill="currentColor" stroke-width="1.0022"/>
  </svg>

  <svg id="icoDownload" viewBox="0 0 384 512">
    <path d="m166.11 501.29c14.317 14.287 37.569 14.287 51.886 0l183.26-182.87c14.317-14.287 14.317-37.488 0-51.774s-37.569-14.287-51.886 0l-120.72 120.58v-350.65c0-20.23-16.379-36.573-36.652-36.573s-36.652 16.344-36.652 36.573v350.53l-120.72-120.35c-14.317-14.287-37.569-14.287-51.886 0-14.317 14.287-14.317 37.488 0 51.774l183.26 182.87z" fill="currentColor" stroke-width="1.1442"/>
  </svg>

  <svg id="icoDiseno" viewBox="0 0 512 512">
    <path d="m368.4 18.3-55.7 55.8 125.2 125.2 55.7-55.7c21.9-21.9 21.9-57.3 0-79.2l-46-46.1c-21.9-21.9-57.3-21.9-79.2 0zm-80.4 76.3-9.2 2.8-144.1 43.2c-19.9 6-35.7 21.2-42.3 41l-88.6 264.2c-3.8 11.3-1 23.9 7.3 32.4l153.6-153.5c-3-6.3-4.7-13.3-4.7-20.7 0-26.5 21.5-48 48-48s48 21.5 48 48-21.5 48-48 48c-7.4 0-14.4-1.7-20.7-4.7l-153.6 153.6c8.6 8.3 21.1 11.2 32.4 7.3l264.3-88.6c19.7-6.6 35-22.4 41-42.3l43.2-144.1 2.8-9.2z" fill="currentColor"/>
  </svg>

  <svg id="icoDiseno3D" viewBox="0 0 16 16">
    <path d="m15 11.2v-7.467l-6.39-3.733v2.867l2.503 1.466c0.099 0.067 0.099 0.2 0 0.234l-2.965 1.733c-0.099 0.067-0.197 0.033-0.263 0l-2.965-1.733c-0.099-0.034-0.099-0.2 0-0.234l2.504-1.466v-2.867l-6.424 3.733v7.467-0.033 0.033l2.438-1.433v-2.934c0-0.1 0.131-0.166 0.197-0.133l2.965 1.733c0.099 0.067 0.132 0.134 0.132 0.234v3.466c0 0.1-0.132 0.167-0.198 0.134l-2.503-1.467-2.438 1.433 6.39 3.767 6.391-3.733-2.438-1.434-2.502 1.467c-0.099 0.067-0.198 0-0.198-0.133v-3.467c0-0.1 0.066-0.2 0.132-0.233l2.965-1.734c0.099-0.066 0.197 0 0.197 0.134v2.933z" fill="currentColor"/>
  </svg>

  <svg id="icoImagenes" viewBox="0 0 512 512">
    <path d="m152.28 120.15c-26.557 0-48.085 21.528-48.085 48.085s21.528 48.085 48.085 48.085 48.085-21.528 48.085-48.085-21.538-48.085-48.085-48.085zm295.62-88.155h-384.68c-34.511 0-63.22 28.7-63.22 64.113v320.56c0 35.412 28.7 64.113 63.211 64.113h384.68c35.412 0 64.113-28.7 64.113-64.113v-320.56c0.00901-35.412-27.84-64.113-64.104-64.113zm16.028 377.96-137.04-186.23c-2.5044-4.6081-8.2144-7.413-14.325-7.413-6.1238 0-11.841 2.7729-15.237 7.392l-106.79 144.35-37.155-46.181c-3.4471-4.2865-8.9497-6.821-14.796-6.821-5.8523 0-11.35 2.5334-14.806 6.821l-75.653 93.975v0l-0.04007-319.75c0-8.8375 7.1906-16.028 16.028-16.028h384.68c8.8375 0 16.028 7.1906 16.028 16.028v313.85z" fill="currentColor" stroke-width="1.0018"/>
  </svg>

  <svg id="icoMusica" viewBox="0 0 24 24">
    <path fill="currentColor" fill-rule="evenodd" d="M20 4v13a3 3 0 1 1-2-2.83V6h-8v13a3 3 0 1 1-2-2.83V4a2 2 0 0 1 2-2h8a2 2 0 0 1 2 2"/>
  </svg>

  <svg id="icoOfimatica" viewBox="0 0 384 512">
    <path d="m365.3 93.38-74.63-74.64c-12.07-11.998-28.37-18.74-45.27-18.74h-181.4c-35.35 0-64 28.65-64 64l0.0065 384c0 35.34 28.65 64 64 64h255.99c35.2 0 64-28.8 64-64v-309.4c0-16.9-6.7-33.2-18.7-45.22zm-29.3 354.62c0 8.836-7.164 16-16 16h-255.98c-8.838 0-16-7.164-16-16l-0.02-383.87c0-8.836 7.164-16 16-16h160v79.87c0 17.67 14.33 32 32 32h79.1v288zm-121.4-200c-3.3-9.6-12.4-16-22.6-16s-19.25 6.406-22.62 16l-24.68 70.1-25.89-77.66c-4.21-12.64-17.81-19.24-30.4-15.24-12.58 4.2-19.36 17.8-15.18 30.4l48 144c3.27 9.7 12.27 16.3 22.57 16.4 10.17 0 19.45-6.406 22.83-16l25.37-71.9 25.4 71.9c3.4 9.6 12.4 16 22.6 16 10.27-0.0938 19.53-6.688 22.77-16.41l48-144c4.188-12.59-2.594-26.16-15.17-30.38-12.61-4.125-26.2 2.594-30.36 15.19l-25.89 77.66z" fill="currentColor"/>
  </svg>

  <svg id="icoPasswords" fill="currentColor" viewBox="0 0 32 32">
    <path d="m21.713 2.7627e-7a10.283 10.283 0 0 0-9.8416 13.271l-11.871 11.872v6.8571h6.8566l11.871-11.872a10.285 10.286 0 1 0 2.9849-20.128m0 18.286a7.9994 8 0 0 1-2.3221-0.34514l-1.3108-0.39771-4.6031 4.6034-1.5759-1.5749-1.6159 1.616 1.5759 1.576-1.8124 1.8126-1.5759-1.576-1.6159 1.616 1.5759 1.576-2.5221 2.5223h-3.6249v-3.6251l11.201-11.202 0.96907-0.968-0.39768-1.3109a7.9994 8 0 1 1 7.6543 5.6777" stroke-width="5.7141"/>
    <ellipse cx="21.902" cy="10.023" rx="3.0922" ry="3.1657" stroke-width="7.8219"/>
  </svg>

  <svg id="icoNotes" viewBox="0 0 448 512">
    <path d="m41.143 54.857c-10.057 0-18.286 8.2286-18.286 18.286v365.71c0 10.057 8.2286 18.286 18.286 18.286h256v-91.429c0-20.229 16.343-36.571 36.571-36.571h91.429v-256c0-10.057-8.2286-18.286-18.286-18.286zm256 457.14h-256c-40.343 0-73.143-32.8-73.143-73.143v-365.71c0-40.343 32.8-73.143 73.143-73.143h365.71c40.343 0 73.143 32.8 73.143 73.143v262.29c0 19.429-7.6571 38.057-21.371 51.771l-103.43 103.43c-13.714 13.714-32.343 21.371-51.771 21.371z" fill="currentColor" stroke-width="1.1428"/>
  </svg>

  <svg id="icoSystem" viewBox="0 0 512 512">
    <path d="m510.58 166.63c3.3951 8.7017 0.53048 18.404-6.7902 24.605l-45.94 39.408c1.1671 8.3016 1.8037 16.803 1.8037 25.405s-0.63658 17.103-1.8037 25.405l45.94 39.408c7.3207 6.2012 10.185 15.903 6.7902 24.605-4.6683 11.902-10.291 23.305-16.763 34.307l-4.9866 8.1016c-7.0024 11.002-14.854 21.404-23.448 31.206-6.2597 7.2014-16.657 9.6019-25.994 6.8013l-59.096-17.703c-14.217 10.302-29.919 18.904-46.683 25.405l-13.262 57.111c-2.122 9.1018-9.5488 16.303-19.31 17.803-14.641 2.3004-29.707 3.5007-45.091 3.5007-15.384 0-30.45-1.2002-45.091-3.5007-9.761-1.5003-17.188-8.7017-19.31-17.803l-13.262-57.111c-16.763-6.5013-32.466-15.103-46.683-25.405l-58.99 17.803c-9.3366 2.8006-19.734 0.30006-25.994-6.8013-8.5939-9.8019-16.445-20.204-23.448-31.206l-4.9866-8.1016c-6.4719-11.002-12.095-22.404-16.763-34.307-3.3951-8.7017-0.53049-18.404 6.7902-24.605l45.94-39.408c-1.1671-8.4016-1.8037-16.903-1.8037-25.505s0.63658-17.103 1.8037-25.405l-45.94-39.408c-7.3207-6.2012-10.185-15.903-6.7902-24.605 4.6683-11.902 10.291-23.305 16.763-34.307l4.9866-8.1016c7.0024-11.002 14.854-21.404 23.448-31.206 6.2597-7.2014 16.657-9.6019 25.994-6.8013l59.096 17.703c14.217-10.302 29.919-18.904 46.683-25.405l13.262-57.111c2.122-9.1018 9.5488-16.303 19.31-17.803 14.641-2.4005 29.707-3.6007 45.091-3.6007 15.384 0 30.45 1.2002 45.091 3.5007 9.761 1.5003 17.188 8.7017 19.31 17.803l13.262 57.111c16.763 6.5013 32.466 15.103 46.683 25.405l59.096-17.703c9.3366-2.8005 19.734-0.30006 25.994 6.8013 8.5939 9.8019 16.445 20.204 23.448 31.206l4.9866 8.1016c6.4719 11.002 12.095 22.404 16.763 34.307zm-254.53 169.43a84.878 80.016 0 1 0 0-160.03 84.878 80.016 0 1 0 0 160.03z" fill="currentColor" stroke-width="1.0301"/>
  </svg>

  <svg id="icoToDo" viewBox="0 0 512 512">
    <path d="m24.808 41c-13.748 0-24.808 11.06-24.808 24.808v49.615c0 13.748 11.06 24.808 24.808 24.808h49.615c13.748 0 24.808-11.06 24.808-24.808v-49.615c0-13.748-11.06-24.808-24.808-24.808zm157.12 16.538c-18.296 0-33.077 14.781-33.077 33.077 0 18.296 14.781 33.077 33.077 33.077h297.69c18.296 0 33.077-14.781 33.077-33.077 0-18.296-14.781-33.077-33.077-33.077zm0 165.38c-18.296 0-33.077 14.781-33.077 33.077 0 18.296 14.781 33.077 33.077 33.077h297.69c18.296 0 33.077-14.781 33.077-33.077 0-18.296-14.781-33.077-33.077-33.077zm0 165.38c-18.296 0-33.077 14.781-33.077 33.077 0 18.296 14.781 33.077 33.077 33.077h297.69c18.296 0 33.077-14.781 33.077-33.077 0-18.296-14.781-33.077-33.077-33.077zm-181.92-157.12v49.615c0 13.748 11.06 24.808 24.808 24.808h49.615c13.748 0 24.808-11.06 24.808-24.808v-49.615c0-13.748-11.06-24.808-24.808-24.808h-49.615c-13.748 0-24.808 11.06-24.808 24.808zm24.808 140.58c-13.748 0-24.808 11.06-24.808 24.808v49.615c0 13.748 11.06 24.808 24.808 24.808h49.615c13.748 0 24.808-11.06 24.808-24.808v-49.615c0-13.748-11.06-24.808-24.808-24.808z" fill="currentColor" stroke-width="1.0337"/>
  </svg>

  <svg id="icoTools" viewBox="0 0 24 24">
    <path d="m23.651 21.947-1.7039 1.7039a1.1999 1.2 0 0 1-1.6919 0l-14.255-14.231a4.5596 4.5598 0 0 1-1.1999 0.17999 4.7996 4.7998 0 0 1-4.5356-6.3597l3.0478 3.0479 2.9758-2.9759-3.0478-3.0479a4.7996 4.7998 0 0 1 6.3595 4.5358 4.5596 4.5598 0 0 1-0.17999 1.2l14.231 14.255a1.1999 1.2 0 0 1 0 1.6919m-23.302-1.6919a1.1999 1.2 0 0 0 0 1.6919l1.7039 1.7039a1.1999 1.2 0 0 0 1.6919 0l6.5635-6.5517-3.3957-3.3959m14.687-13.703-4.7996 2.3999v2.3999l-2.6038 2.6039 2.3998 2.3999 2.6038-2.6039h2.3998l2.3998-4.7998z" fill="currentColor" stroke-width="1.1999"/>
  </svg>

  <svg id="icoVideoPlayer" viewBox="0 0 512 512">
    <path d="m0 96c0-35.3 28.7-64 64-64h384c35.3 0 64 28.7 64 64v320c0 35.3-28.7 64-64 64h-384c-35.3 0-64-28.7-64-64zm48 272v32c0 8.8 7.2 16 16 16h32c8.8 0 16-7.2 16-16v-32c0-8.8-7.2-16-16-16h-32c-8.8 0-16 7.2-16 16zm368-16c-8.8 0-16 7.2-16 16v32c0 8.8 7.2 16 16 16h32c8.8 0 16-7.2 16-16v-32c0-8.8-7.2-16-16-16zm-368-112v32c0 8.8 7.2 16 16 16h32c8.8 0 16-7.2 16-16v-32c0-8.8-7.2-16-16-16h-32c-8.8 0-16 7.2-16 16zm368-16c-8.8 0-16 7.2-16 16v32c0 8.8 7.2 16 16 16h32c8.8 0 16-7.2 16-16v-32c0-8.8-7.2-16-16-16zm-368-112v32c0 8.8 7.2 16 16 16h32c8.8 0 16-7.2 16-16v-32c0-8.8-7.2-16-16-16h-32c-8.8 0-16 7.2-16 16zm368-16c-8.8 0-16 7.2-16 16v32c0 8.8 7.2 16 16 16h32c8.8 0 16-7.2 16-16v-32c0-8.8-7.2-16-16-16zm-256 32v64c0 17.7 14.3 32 32 32h128c17.7 0 32-14.3 32-32v-64c0-17.7-14.3-32-32-32h-128c-17.7 0-32 14.3-32 32zm32 160c-17.7 0-32 14.3-32 32v64c0 17.7 14.3 32 32 32h128c17.7 0 32-14.3 32-32v-64c0-17.7-14.3-32-32-32z" fill="currentColor"/>
  </svg>

  <svg id="icoVideoGames" viewBox="0 0 256 256">
    <path d="m177.59 115.61h-24.782a12.391 12.392 0 0 1 0-24.784h24.782a12.391 12.392 0 0 1 0 24.784m-74.347-24.784h-4.1304v-4.1307a12.391 12.392 0 0 0-24.782 0v4.1307h-4.1304a12.391 12.392 0 0 0 0 24.784h4.1304v4.1307a12.391 12.392 0 0 0 24.782 0v-4.1307h4.1304a12.391 12.392 0 0 0 0-24.784m145.35 114.57a41.304 41.307 0 0 1-62.988 5.5248 7.2281 7.2287 0 0 1-0.54728-0.5783l-39.817-45.159h-34.427l-39.775 45.159c-0.17554 0.1962-0.36141 0.39242-0.54727 0.5783a41.304 41.307 0 0 1-69.865-36.392 1.0326 1.0327 0 0 1 0-0.20654l16.914-86.807a65.962 65.967 0 0 1 64.929-54.515h90.992a66.168 66.174 0 0 1 64.981 54.195 2.0652 2.0654 0 0 1 0 0.19621l16.893 86.92a2.0652 2.0654 0 0 1 0 0.20654 41.035 41.039 0 0 1-6.7428 30.877m-75.131-64.997a41.304 41.307 0 0 0 0-82.614h-90.982a41.2 41.204 0 0 0-40.55 34.14 2.0652 2.0654 0 0 0 0 0.21686l-16.873 86.745a16.521 16.523 0 0 0 13.424 19.043 16.594 16.595 0 0 0 14.312-4.3476l43.121-48.98a12.391 12.392 0 0 1 9.2933-4.203zm57.577 38.529-7.2281-37.125a65.921 65.926 0 0 1-45.713 23.194l25.206 28.626a16.521 16.523 0 0 0 27.725-14.695z" fill="currentColor" stroke-width="1.0326"/>
  </svg>

  <svg id="icoVideoEdit" viewBox="0 0 122 100">
    <path d="m11.72-0.34h89.63a11.73 11.81 0 0 1 11.72 11.8v28.472a15.63 15.736 0 0 0-4.53-0.10068c-0.37 0-0.74 0.09061-1.11 0.16109v-13.843h-101.78v47.168h65.9a14.91 15.011 0 0 0-2.17 5.6783h-9.25v15.776h7.11l-0.11 0.82557a15.12 15.223 0 0 0 0.13 4.8628h-55.54a11.74 11.82 0 0 1-11.72-11.8v-77.201a11.74 11.82 0 0 1 11.72-11.8zm85.48 94.9-15 3.0204 2.17-16.109zm-8.1-17.881 20.22-21.143a1.38 1.3894 0 0 1 1.73-0.27183l11.47 11.175a1.22 1.2283 0 0 1-0.1 1.8324l-20.49 21.425zm-38.6-43.141 19.83 13.914a3 3.0204 0 0 1 0.81 0.79537 2.81 2.8291 0 0 1-0.72 3.9466l-19.74 13.743a2.83 2.8492 0 0 1-4.62-2.2049v-27.828s0.43-1.5001 0.51-1.631a2.83 2.8492 0 0 1 3.93-0.69469zm4 61.233v-15.776h-22.79v15.776zm-28.44-15.776h-20.41v9.6652a6.09 6.1314 0 0 0 6.07 6.1112h14.34zm56.22-58.535v-15.102h-22.15v15.102zm5.65-15.102v15.102h19.49v-9.0007a6.09 6.1314 0 0 0-6.08-6.1112zm-33.45 15.102v-15.102h-22.77v15.102zm-28.42 0v-15.102h-14.34a6.09 6.1314 0 0 0-6.07 6.1112v9.0007z" fill="currentColor" stroke-width="1.0032"/>
  </svg>

  <svg id="icoVirtualMachines" viewBox="0 0 24 24">
    <g transform="matrix(1.0598 0 0 1.0419 -.70943 -.52094)" fill="none" stroke="currentColor" stroke-linecap="round" stroke-linejoin="round" stroke-width="3">
      <rect x="5" y="2" width="14" height="20" rx="2"/>
      <path d="m15 14h0.01m-6.01-8h6m-6 4h6"/>
    </g>
  </svg>

</svg>
