<svg xmlns="http://www.w3.org/2000/svg" viewBox="0 0 512 512"><path fill="currentColor" d="M152.28 120.15c-26.557 0-48.085 21.528-48.085 48.085s21.528 48.085 48.085 48.085 48.085-21.528 48.085-48.085-21.538-48.085-48.085-48.085M447.9 31.995H63.22C28.709 31.995 0 60.695 0 96.108v320.56c0 35.412 28.7 64.113 63.211 64.113h384.68c35.412 0 64.113-28.7 64.113-64.113V96.108c.009-35.412-27.84-64.113-64.104-64.113m16.028 377.96-137.04-186.23c-2.504-4.608-8.214-7.413-14.325-7.413-6.124 0-11.841 2.773-15.237 7.392l-106.79 144.35-37.155-46.181c-3.447-4.286-8.95-6.821-14.796-6.821-5.852 0-11.35 2.533-14.806 6.821l-75.653 93.975-.04-319.75c0-8.838 7.19-16.028 16.028-16.028h384.68c8.837 0 16.028 7.19 16.028 16.028v313.85z"/></svg>