<?xml version="1.0" encoding="UTF-8"?>
<svg viewBox="0 0 24 24" xmlns="http://www.w3.org/2000/svg">
    <path d="m23.651 21.947-1.7039 1.7039a1.1999 1.2 0 0 1-1.6919 0l-14.255-14.231a4.5596 4.5598 0 0 1-1.1999 0.17999 4.7996 4.7998 0 0 1-4.5356-6.3597l3.0478 3.0479 2.9758-2.9759-3.0478-3.0479a4.7996 4.7998 0 0 1 6.3595 4.5358 4.5596 4.5598 0 0 1-0.17999 1.2l14.231 14.255a1.1999 1.2 0 0 1 0 1.6919m-23.302-1.6919a1.1999 1.2 0 0 0 0 1.6919l1.7039 1.7039a1.1999 1.2 0 0 0 1.6919 0l6.5635-6.5517-3.3957-3.3959m14.687-13.703-4.7996 2.3999v2.3999l-2.6038 2.6039 2.3998 2.3999 2.6038-2.6039h2.3998l2.3998-4.7998z" fill="currentColor" stroke-width="1.1999"/>
</svg>
